<svg id="лого.svg" xmlns="http://www.w3.org/2000/svg" xmlns:xlink="http://www.w3.org/1999/xlink" width="191.081" height="37.131" viewBox="0 0 191.081 37.131">
  <defs>
    <style>
      .cls-1, .cls-3 {
        fill: #2b1f83;
      }

      .cls-2 {
        fill: #fffb00;
        filter: url(#filter);
      }

      .cls-2, .cls-3 {
        fill-rule: evenodd;
      }

      .cls-3 {
        stroke: #2b1f83;
        stroke-width: 0.15px;
      }
    </style>
    <filter id="filter" x="81.031" y="75.438" width="114.75" height="23.563" filterUnits="userSpaceOnUse">
      <feOffset result="offset" dy="1" in="SourceAlpha"/>
      <feGaussianBlur result="blur"/>
      <feFlood result="flood" flood-opacity="0.44"/>
      <feComposite result="composite" operator="in" in2="blur"/>
      <feBlend result="blend" in="SourceGraphic"/>
    </filter>
  </defs>
  <rect id="Прямоугольник_скругл._углы_1" data-name="Прямоугольник, скругл. углы 1" class="cls-1" x="43.081" y="1.05" width="148" height="35" rx="5" ry="5"/>
  <path id="канцмир" class="cls-2" d="M90.783,93.9h3.77L90.6,85.346l-1.144-1.014,1.56-.91L97.569,75.7H93.513l-6.162,7.774-0.806.286,1.716-8.06h-3.38L81.033,93.9h3.38l1.638-7.774h1.222Zm15.314,0h3.38l-2.34-18.33h-2.5L94.5,93.9h3.614l2.158-4.03h5.3Zm-2.21-10.92,1.04-2.886h0.13l-0.026,2.86,0.416,4.056h-3.692ZM120.864,93.9h3.38l3.848-18.2h-3.38l-1.56,7.41h-6.318l1.56-7.41h-3.38l-3.848,18.2h3.38l1.612-7.618h6.318Zm22.126-3.172h-2.184L143.978,75.7H140.6l-3.2,15.028h-5.98l3.2-15.028h-3.38L127.39,93.9h12.116l-0.312,3.25h2.418ZM157.836,93.9h3.38l3.848-18.2h-3.276l-6.136,8.268L154.474,86.1h-0.127l-0.333-2.08-2.73-8.32h-3.016L144.42,93.9h3.224l2-9.464,0.26-3.562h0.129l0.466,2.86,2.434,6.812H154l5.111-6.734,1.712-2.938h0.156l-1.144,3.588Zm16.588,0h3.38l3.848-18.2h-2.6l-8.424,9.542-1.716,2.574h-0.156l0.78-2.392L171.59,75.7h-3.38l-3.848,18.2h2.6l8.476-9.724,1.664-2.5h0.156L176.5,83.994Zm6.525,0h3.38l1.3-6.292c0.087,0.017.221,0.035,0.4,0.052s0.373,0.031.572,0.039,0.39,0.013.572,0.013h0.4a13.061,13.061,0,0,0,3.016-.35,7.254,7.254,0,0,0,2.639-1.194,6.183,6.183,0,0,0,1.859-2.205,7.34,7.34,0,0,0,.7-3.386,5.313,5.313,0,0,0-.468-2.322,4.224,4.224,0,0,0-1.313-1.6,5.776,5.776,0,0,0-1.976-.921,9.6,9.6,0,0,0-2.457-.3q-1.248,0-2.483.117t-2.327.325Zm6.6-15.288q0.286-.052.715-0.091t0.9-.039a6.449,6.449,0,0,1,1.183.1,2.628,2.628,0,0,1,.975.379,1.931,1.931,0,0,1,.663.77,2.8,2.8,0,0,1,.247,1.253,3.619,3.619,0,0,1-.377,1.723,3.169,3.169,0,0,1-1,1.136,4.251,4.251,0,0,1-1.443.626,7.288,7.288,0,0,1-1.7.2h-0.3c-0.13,0-.269,0-0.416-0.013s-0.282-.022-0.4-0.039-0.217-.035-0.286-0.052Z" transform="translate(-19.919 -67.95)"/>
  <path id="Фигура_2" data-name="Фигура 2" class="cls-3" d="M51.89,71.807c-6.334-1.2-12.7-2.26-19.025-3.564-3.284-.67-4.8.064-5.65,3.435-0.021.085-.049,0.206-0.085,0.37-0.014.05-.021,0.107-0.035,0.164-0.564,2.8-2.52,14.261-3.371,19.27a2.849,2.849,0,0,0,1.766,3.208c1.2,0.415,2.511.777,2.565,0.792,4.894,1.233,9.887,2.053,14.837,3.043C45.76,99.1,47.384,97.82,48,95.048c0.932-4.155,1.879-8.31,2.775-12.472,0.586-2.744-.325-4.668-3.157-5.381-3.644-.912-7.281-1.825-10.932-2.687-2.33-.549-3.891.35-4.548,2.708-0.89,3.193-1.78,6.386-2.627,9.593-0.586,2.231.092,3.849,2.521,4.1a71.637,71.637,0,0,0,9.064.649c2.691-.064,3.534-1.868,2.235-4.263-1.008-1.874-2.18-3.656-3.3-5.465a0.706,0.706,0,0,0-.99-0.224l-0.012.008a0.783,0.783,0,0,0-.267,1.016c0.923,1.771,1.869,3.594,3.072,5.912a0.8,0.8,0,0,1-.73,1.166,68.6,68.6,0,0,1-8.435-.659c-1.015-.164-1.751-0.164-1.31-2.529a85.029,85.029,0,0,1,2.56-9.35c0.485-1.476,1.482-1.11,2.354-.92A94.424,94.424,0,0,1,47.8,79.114c1.137,0.412,1.28,1.069,1.214,2.149a114.964,114.964,0,0,1-2.934,13.215c-0.572,1.952-1.22,2.321-2.9,2.046-5.1-.838-10.264-1.807-15.282-3.065-2.369-.594-2.591-1.546-2.175-3.606,1.158-5.68,2.281-11.367,3.263-17.076,0.4-2.352,1.638-2.915,3.722-2.523,6.229,1.183,12.45,2.374,18.693,3.507,2.9,0.52,4.039,2.134,3.46,5.053-1.356,6.841-2.592,13.719-3.764,20.6-0.5,2.943-1.791,3.749-4.88,3.235-6.137-1.02-12.118-2.089-18.319-3.225-3.948-.723-6.565-1.176-5.47-6.164L25.379,76.9s0.579-3.1.825-5.209a0.392,0.392,0,0,0-.285-0.422c-0.357-.1-0.959-0.39-1.036-0.138a14.7,14.7,0,0,0-.464,2.094c-1.224,7.467-3.521,15.349-4.4,22.86-0.277,2.361,1.783,4.113,3.511,4.471,7.819,1.62,15.7,2.9,23.552,4.319,3.065,0.549,4.958-.442,5.53-3.763C53.9,93.644,55.357,86.2,56.664,78.735,57.539,73.7,56.868,72.755,51.89,71.807Z" transform="translate(-19.919 -67.95)"/>
</svg>
